<svg viewBox="0 0 1717 225" fill="none" xmlns="http://www.w3.org/2000/svg">
<path d="M0.136853 17.1515H86.6304V219.57H100.445V17.1515H186.939V5.13846H0.136853V17.1515ZM244.24 17.1515H341.245C371.578 17.1515 398.607 26.1612 398.607 60.9989C398.607 109.952 351.155 109.952 337.641 109.952H244.24V17.1515ZM230.425 219.57H244.24V121.965H339.743C382.089 121.965 394.102 132.476 395.003 169.716C395.904 202.452 397.105 215.966 401.009 219.57H414.824C410.92 211.462 409.719 199.749 408.818 160.106C408.517 136.981 395.003 118.962 368.574 115.658V115.057C398.907 107.85 412.422 84.7245 412.422 61.8998C412.422 17.1515 381.188 5.13846 340.043 5.13846H230.425V219.57ZM471.916 219.57H485.731V5.13846H471.916V219.57ZM551.808 219.57H565.622V114.457H699.567V102.444H565.622V17.1515H707.376V5.13846H551.808V219.57ZM750.554 112.354C750.554 154.1 777.584 224.376 864.378 224.376C951.171 224.376 978.201 154.1 978.201 112.354C978.201 70.6093 951.171 0.333271 864.378 0.333271C777.283 0.333271 750.554 70.6093 750.554 112.354ZM764.369 112.354C764.369 60.9989 799.808 12.3462 864.378 12.3462C928.947 12.3462 964.386 60.9989 964.386 112.354C964.386 163.71 928.947 212.363 864.378 212.363C799.808 212.363 764.369 163.71 764.369 112.354ZM1048.9 17.1515H1145.9C1176.24 17.1515 1203.27 26.1612 1203.27 60.9989C1203.27 109.952 1155.81 109.952 1142.3 109.952H1048.9V17.1515ZM1035.08 219.57H1048.9V121.965H1144.4C1186.75 121.965 1198.76 132.476 1199.66 169.716C1200.56 202.452 1201.76 215.966 1205.67 219.57H1219.48C1215.58 211.462 1214.38 199.749 1213.48 160.106C1213.18 136.981 1199.66 118.962 1173.23 115.658V115.057C1203.57 107.85 1217.08 84.7245 1217.08 61.8998C1217.08 17.1515 1185.85 5.13846 1144.7 5.13846H1035.08V219.57ZM1472.99 138.182C1464.88 184.733 1428.84 212.363 1381.39 212.363C1315.62 212.363 1281.08 166.113 1281.08 112.354C1281.08 58.2959 1320.12 12.3462 1381.39 12.3462C1421.93 12.3462 1458.87 31.2667 1469.38 72.4112H1483.2C1472.09 24.3592 1433.04 0.333271 1381.39 0.333271C1302.7 0.333271 1267.27 60.3982 1267.27 112.354C1267.27 183.231 1316.52 224.376 1381.39 224.376C1445.36 224.376 1482 179.026 1486.8 138.182H1472.99ZM1545.64 219.57H1716.82V207.557H1559.45V114.457H1708.71V102.444H1559.45V17.1515H1715.02V5.13846H1545.64V219.57Z" fill="white"/>
</svg>
